# xmcd CD database file
#
# Track frame offsets:
#	150
#	3495
#	22380
#	42330
#	59510
#	77757
#	99350
#	124400
#	148145
#	168060
#	189840
#	208355
#	262425
#
# Disc length: 3759 seconds
#
# Revision: 0
# Processed by: cddbd v1.5PL3 Copyright (c) Steve Scherf et al.
# Submitted via: CDex 1.40Release
#
DISCID=c30ead0d
DTITLE=Kirari - kirariddim
DYEAR=2000
DGENRE=JPop
TTITLE0=Introduction
TTITLE1=Last Piece
TTITLE2=RU Ready 4 Cypher
TTITLE3=Make Me Crazy
TTITLE4=DAWN ROAD
TTITLE5=NATSU・UMI・SAKANA
TTITLE6=Cat Grows up
TTITLE7=to be Lover
TTITLE8=I'll be there
TTITLE9=Toy Soldiers
TTITLE10=Mind Kids
TTITLE11=SUNDAY PARTY
TTITLE12=心やすめて
EXTD=YEAR: 2000
EXTT0=
EXTT1=
EXTT2=
EXTT3=
EXTT4=
EXTT5=
EXTT6=
EXTT7=
EXTT8=
EXTT9=
EXTT10=
EXTT11=
EXTT12=
PLAYORDER=
